<mxfile host="app.diagrams.net" modified="2023-04-26T21:55:19.687Z" agent="Mozilla/5.0 (Windows NT 10.0; Win64; x64) AppleWebKit/537.36 (KHTML, like Gecko) Chrome/112.0.0.0 Safari/537.36" version="21.2.3" etag="LbBOoZ-OroI5V9iagR8O" type="github">
  <diagram name="Page-1" id="t5FtZeMBlBtTWARQiRL2">
    <mxGraphModel>
      <root>
        <mxCell id="0" />
        <mxCell id="1" parent="0" />
      </root>
    </mxGraphModel>
  </diagram>
</mxfile>
